<?xml version="1.0" encoding="UTF-8" standalone="no"?>
<!-- Created with Inkscape (http://www.inkscape.org/) -->

<svg
   xmlns:dc="http://purl.org/dc/elements/1.1/"
   xmlns:cc="http://creativecommons.org/ns#"
   xmlns:rdf="http://www.w3.org/1999/02/22-rdf-syntax-ns#"
   xmlns:svg="http://www.w3.org/2000/svg"
   xmlns="http://www.w3.org/2000/svg"
   xmlns:xlink="http://www.w3.org/1999/xlink"
   xmlns:sodipodi="http://sodipodi.sourceforge.net/DTD/sodipodi-0.dtd"
   xmlns:inkscape="http://www.inkscape.org/namespaces/inkscape"
   width="24pt"
   height="24pt"
   viewBox="0 0 30.000001 30"
   id="svg4739"
   version="1.1"
   inkscape:version="0.91 r13725"
   sodipodi:docname="logo.svg">
  <defs
     id="defs4741">
    <filter
       style="color-interpolation-filters:sRGB"
       inkscape:label="Drop Shadow"
       id="filter8359-6-2-0-7"
       height="1.03"
       x="0"
       y="0"
       width="1.1">
      <feFlood
         flood-opacity="0.20000000000000001"
         flood-color="rgb(0,0,0)"
         result="flood"
         id="feFlood8361-2-1-1-5" />
      <feComposite
         in="flood"
         in2="SourceGraphic"
         operator="in"
         result="composite1"
         id="feComposite8363-1-2-5-2" />
      <feGaussianBlur
         in="composite1"
         stdDeviation="1.1000000000000001"
         result="blur"
         id="feGaussianBlur8365-0-5-6-5" />
      <feOffset
         dx="1.9999999999999998"
         dy="5"
         result="offset"
         id="feOffset8367-1-5-5-5" />
      <feComposite
         in="SourceGraphic"
         in2="offset"
         operator="over"
         result="composite2"
         id="feComposite8369-5-9-3-0" />
    </filter>
  </defs>
  <sodipodi:namedview
     id="base"
     pagecolor="#000000"
     bordercolor="#666666"
     borderopacity="1.0"
     inkscape:pageopacity="0"
     inkscape:pageshadow="2"
     inkscape:zoom="4"
     inkscape:cx="-13.464969"
     inkscape:cy="1012.0295"
     inkscape:document-units="pt"
     inkscape:current-layer="layer1"
     showgrid="false"
     units="pt"
     inkscape:snap-object-midpoints="true"
     inkscape:snap-bbox="true"
     inkscape:bbox-nodes="true"
     inkscape:snap-bbox-midpoints="true"
     inkscape:snap-bbox-edge-midpoints="true"
     inkscape:bbox-paths="true"
     inkscape:snap-center="true"
     inkscape:snap-page="true"
     inkscape:window-width="1858"
     inkscape:window-height="1057"
     inkscape:window-x="584"
     inkscape:window-y="-8"
     inkscape:window-maximized="1"
     inkscape:object-paths="true"
     inkscape:snap-intersection-paths="true"
     inkscape:object-nodes="true" />
  <metadata
     id="metadata4744">
    <rdf:RDF>
      <cc:Work
         rdf:about="">
        <dc:format>image/svg+xml</dc:format>
        <dc:type
           rdf:resource="http://purl.org/dc/dcmitype/StillImage" />
        <dc:title></dc:title>
      </cc:Work>
    </rdf:RDF>
  </metadata>
  <g
     inkscape:label="Layer 1"
     inkscape:groupmode="layer"
     id="layer1"
     transform="translate(0,-1022.3622)">
    <path
       style="color:#000000;clip-rule:nonzero;display:inline;overflow:visible;visibility:visible;opacity:1;isolation:auto;mix-blend-mode:normal;color-interpolation:sRGB;color-interpolation-filters:linearRGB;solid-color:#000000;solid-opacity:1;fill:#ffffff;fill-opacity:1;fill-rule:nonzero;stroke:none;stroke-width:0.375;stroke-linecap:butt;stroke-linejoin:miter;stroke-miterlimit:4;stroke-dasharray:none;stroke-dashoffset:0;stroke-opacity:1;color-rendering:auto;image-rendering:auto;shape-rendering:auto;text-rendering:auto;enable-background:new"
       d="M 13.72093,16.25725 C 11.32635,16.127529 8.8700703,15.924956 6.6553387,14.931839 5.9370204,14.556624 5.0076853,14.051472 5.002001,13.128026 c 0.1027113,-0.918809 1.0510918,-1.389652 1.7946047,-1.746573 0.2516327,-0.224575 0.9488269,-0.353568 0.3792175,0.0588 -0.510596,0.345231 -0.6900537,1.138781 -0.1611046,1.553396 1.1311003,1.070289 2.7350704,1.349592 4.2118444,1.617712 1.932469,0.359112 3.916395,0.320306 5.871915,0.216938 1.644908,-0.145668 3.305734,-0.410116 4.830707,-1.068457 0.65553,-0.356178 1.67608,-0.903471 1.333383,-1.805676 -0.177237,-0.331922 -1.090107,-1.080696 -0.20342,-0.679837 0.771574,0.420263 1.829497,0.845001 1.939722,1.841372 0.01128,0.936889 -0.940777,1.449333 -1.660295,1.829238 -1.6975,0.77307 -3.560514,1.084494 -5.404187,1.258022 -1.403344,0.0598 -2.80936,0.06934 -4.213458,0.05429 z"
       id="path5322"
       inkscape:connector-curvature="0" />
    <path
       style="color:#000000;clip-rule:nonzero;display:inline;overflow:visible;visibility:visible;opacity:1;isolation:auto;mix-blend-mode:normal;color-interpolation:sRGB;color-interpolation-filters:linearRGB;solid-color:#000000;solid-opacity:1;fill:#ffffff;fill-opacity:1;fill-rule:nonzero;stroke:none;stroke-width:0.375;stroke-linecap:butt;stroke-linejoin:miter;stroke-miterlimit:4;stroke-dasharray:none;stroke-dashoffset:0;stroke-opacity:1;color-rendering:auto;image-rendering:auto;shape-rendering:auto;text-rendering:auto;enable-background:new"
       d="m 15.960239,12.833301 c -1.520586,0.01927 -3.0451,-0.02638 -4.549109,-0.270109 C 10.682716,12.466166 9.9699634,12.237422 9.310449,11.916818 8.9872554,11.724256 8.4412735,11.417639 8.6729578,10.968325 9.1631142,9.8148527 9.6457311,8.6587446 10.137712,7.5059773 c 0.05197,-0.6856153 0.783224,-0.7196108 1.303305,-0.8323756 1.125309,-0.2839518 2.241054,-0.6116518 3.373799,-0.862464 0.572415,-0.00923 1.111743,0.2496124 1.669476,0.3516974 0.986321,0.249233 1.991098,0.4719829 2.964424,0.7426022 0.33428,0.3400799 0.391009,0.8557289 0.602817,1.2720089 0.425036,0.9631943 0.791166,1.9503818 1.223153,2.9101648 0.05878,0.469143 -0.505104,0.739349 -0.866786,0.925562 -1.446726,0.616033 -3.272993,0.729918 -4.447661,0.820114 z"
       id="path5320"
       inkscape:connector-curvature="0"
       sodipodi:nodetypes="cccccccccccccc" />
    <path
       sodipodi:type="inkscape:offset"
       inkscape:radius="0"
       inkscape:original="M 23.019531 16.328125 C 22.637716 16.563891 22.285849 16.687546 21.945312 16.728516 C 21.914502 16.728516 21.935991 16.779807 21.925781 16.810547 C 21.770987 17.661404 21.377535 18.481622 20.748047 19.199219 C 18.973116 21.228986 16.692544 22.018005 14.050781 21.720703 C 13.142678 21.618195 12.493543 21.721335 11.740234 22.326172 C 11.348088 22.643958 10.387802 23.034222 10.294922 23.013672 C 11.316545 21.47597 10.574062 20.563234 9.5214844 19.599609 C 8.6546563 18.810254 8.1282629 17.877699 7.921875 16.914062 C 7.921875 16.893513 7.9307612 16.861328 7.9101562 16.861328 C 7.5283389 16.83058 7.4771427 16.82025 6.8476562 16.574219 C 6.8269922 16.564039 6.859375 16.616189 6.859375 16.636719 C 7.0451219 18.194923 7.8689264 19.71222 9.3652344 20.921875 C 9.8089743 21.280677 9.8715605 21.629012 9.6445312 22.080078 C 9.314307 22.73616 8.9532395 23.371278 8.5507812 24.109375 C 8.8500558 24.140095 9.0868586 24.181196 9.3242188 24.191406 C 10.541903 24.24266 11.564034 23.751307 12.554688 23.105469 C 12.874593 22.900442 13.339434 22.756379 13.710938 22.787109 C 16.053446 22.99214 18.220661 22.571424 20.150391 21.1875 C 21.894374 19.936838 22.864748 18.184611 23.019531 16.390625 C 23.019531 16.359815 23.040141 16.297405 23.019531 16.328125 z "
       xlink:href="#path3458-5-4-0-6-6"
       style="color:#000000;clip-rule:nonzero;display:inline;overflow:visible;visibility:visible;opacity:1;isolation:auto;mix-blend-mode:normal;color-interpolation:sRGB;color-interpolation-filters:linearRGB;solid-color:#000000;solid-opacity:1;fill:#ffffff;fill-opacity:1;fill-rule:nonzero;stroke:none;stroke-width:0.375;stroke-linecap:butt;stroke-linejoin:miter;stroke-miterlimit:4;stroke-dasharray:none;stroke-dashoffset:0;stroke-opacity:1;color-rendering:auto;image-rendering:auto;shape-rendering:auto;text-rendering:auto;enable-background:new"
       id="path5326"
       inkscape:href="#path3458-5-4-0-6-6"
       d="m 23.019531,16.328125 c -0.381815,0.235766 -0.733682,0.359421 -1.074219,0.400391 -0.03081,0 -0.0093,0.05129 -0.01953,0.08203 -0.154794,0.850857 -0.548246,1.671075 -1.177734,2.388672 -1.774931,2.029767 -4.055503,2.818786 -6.697266,2.521484 -0.908103,-0.102508 -1.557238,6.32e-4 -2.310547,0.605469 -0.392146,0.317786 -1.352432,0.70805 -1.445312,0.6875 1.021623,-1.537702 0.27914,-2.450438 -0.7734376,-3.414063 -0.8668281,-0.789355 -1.3932215,-1.72191 -1.5996094,-2.685547 0,-0.02055 0.00889,-0.05273 -0.011719,-0.05273 -0.3818173,-0.03075 -0.4330135,-0.04108 -1.0625,-0.287109 -0.020664,-0.01018 0.011719,0.04197 0.011719,0.0625 0.1857469,1.558204 1.0095514,3.075501 2.5058594,4.285156 0.4437399,0.358802 0.5063261,0.707137 0.2792968,1.158203 -0.3302242,0.656082 -0.6912917,1.2912 -1.09375,2.029297 0.2992746,0.03072 0.5360774,0.07182 0.7734376,0.08203 1.2176842,0.05125 2.2398152,-0.440099 3.2304692,-1.085937 0.319905,-0.205027 0.784746,-0.34909 1.15625,-0.31836 2.342508,0.205031 4.509723,-0.215685 6.439453,-1.599609 1.743983,-1.250662 2.714357,-3.002889 2.86914,-4.796875 0,-0.03081 0.02061,-0.09322 0,-0.0625 z" />
    <path
       sodipodi:type="inkscape:offset"
       inkscape:radius="0"
       inkscape:original="M 23.019531 16.328125 C 22.637716 16.563891 22.285849 16.687546 21.945312 16.728516 C 21.914502 16.728516 21.935991 16.779807 21.925781 16.810547 C 21.770987 17.661404 21.377535 18.481622 20.748047 19.199219 C 18.973116 21.228986 16.692544 22.018005 14.050781 21.720703 C 13.142678 21.618195 12.493543 21.721335 11.740234 22.326172 C 11.348088 22.643958 10.387802 23.034222 10.294922 23.013672 C 11.316545 21.47597 10.574062 20.563234 9.5214844 19.599609 C 8.6546563 18.810254 8.1282629 17.877699 7.921875 16.914062 C 7.921875 16.893513 7.9307612 16.861328 7.9101562 16.861328 C 7.5283389 16.83058 7.4771427 16.82025 6.8476562 16.574219 C 6.8269922 16.564039 6.859375 16.616189 6.859375 16.636719 C 7.0451219 18.194923 7.8689264 19.71222 9.3652344 20.921875 C 9.8089743 21.280677 9.8715605 21.629012 9.6445312 22.080078 C 9.314307 22.73616 8.9532395 23.371278 8.5507812 24.109375 C 8.8500558 24.140095 9.0868586 24.181196 9.3242188 24.191406 C 10.541903 24.24266 11.564034 23.751307 12.554688 23.105469 C 12.874593 22.900442 13.339434 22.756379 13.710938 22.787109 C 16.053446 22.99214 18.220661 22.571424 20.150391 21.1875 C 21.894374 19.936838 22.864748 18.184611 23.019531 16.390625 C 23.019531 16.359815 23.040141 16.297405 23.019531 16.328125 z "
       style="color:#000000;clip-rule:nonzero;display:inline;overflow:visible;visibility:visible;opacity:1;isolation:auto;mix-blend-mode:normal;color-interpolation:sRGB;color-interpolation-filters:linearRGB;solid-color:#000000;solid-opacity:1;fill:#ffffff;fill-opacity:1;fill-rule:nonzero;stroke:none;stroke-width:0.27500001;stroke-linecap:butt;stroke-linejoin:miter;stroke-miterlimit:4;stroke-dasharray:none;stroke-dashoffset:0;stroke-opacity:1;color-rendering:auto;image-rendering:auto;shape-rendering:auto;text-rendering:auto;enable-background:new"
       id="path5328"
       d="m 23.019531,16.328125 c -0.381815,0.235766 -0.733682,0.359421 -1.074219,0.400391 -0.03081,0 -0.0093,0.05129 -0.01953,0.08203 -0.154794,0.850857 -0.548246,1.671075 -1.177734,2.388672 -1.774931,2.029767 -4.055503,2.818786 -6.697266,2.521484 -0.908103,-0.102508 -1.557238,6.32e-4 -2.310547,0.605469 -0.392146,0.317786 -1.352432,0.70805 -1.445312,0.6875 1.021623,-1.537702 0.27914,-2.450438 -0.7734376,-3.414063 -0.8668281,-0.789355 -1.3932215,-1.72191 -1.5996094,-2.685547 0,-0.02055 0.00889,-0.05273 -0.011719,-0.05273 -0.3818173,-0.03075 -0.4330135,-0.04108 -1.0625,-0.287109 -0.020664,-0.01018 0.011719,0.04197 0.011719,0.0625 0.1857469,1.558204 1.0095514,3.075501 2.5058594,4.285156 0.4437399,0.358802 0.5063261,0.707137 0.2792968,1.158203 -0.3302242,0.656082 -0.6912917,1.2912 -1.09375,2.029297 0.2992746,0.03072 0.5360774,0.07182 0.7734376,0.08203 1.2176842,0.05125 2.2398152,-0.440099 3.2304692,-1.085937 0.319905,-0.205027 0.784746,-0.34909 1.15625,-0.31836 2.342508,0.205031 4.509723,-0.215685 6.439453,-1.599609 1.743983,-1.250662 2.714357,-3.002889 2.86914,-4.796875 0,-0.03081 0.02061,-0.09322 0,-0.0625 z" />
  </g>
</svg>
